<svg width="8" height="9" viewBox="0 0 8 9" fill="none" xmlns="http://www.w3.org/2000/svg">
<path d="M4.74023 5.88867H0.28125V4.62305H4.71094C5.08594 4.62305 5.38867 4.56445 5.61914 4.44727C5.84961 4.32617 6.01758 4.16016 6.12305 3.94922C6.22852 3.73438 6.28125 3.48828 6.28125 3.21094C6.28125 2.95312 6.22656 2.71289 6.11719 2.49023C6.00781 2.26758 5.83984 2.08789 5.61328 1.95117C5.39062 1.81445 5.10156 1.74609 4.74609 1.74609H3.08203V9H1.4707V0.46875H4.74023C5.4082 0.46875 5.97656 0.585938 6.44531 0.820312C6.91406 1.05469 7.27344 1.37695 7.52344 1.78711C7.77734 2.19727 7.9043 2.66797 7.9043 3.19922C7.9043 3.76172 7.77539 4.24414 7.51758 4.64648C7.26367 5.04883 6.90039 5.35742 6.42773 5.57227C5.95898 5.7832 5.39648 5.88867 4.74023 5.88867ZM4.97461 6.43945V7.71094H0.28125V6.43945H4.97461Z" fill="#202840"/>
</svg>
