<svg width="20" height="20" viewBox="0 0 20 20" fill="none" xmlns="http://www.w3.org/2000/svg">
<path d="M7.06996 9.60857C7.28917 9.55637 7.5065 9.68172 7.59527 9.88885L10 15.4999L12.4047 9.88885C12.4935 9.68173 12.7108 9.55637 12.93 9.60857C14.6907 10.0278 16 11.6109 16 13.4999V17.4999C16 18.0522 15.5523 18.4999 15 18.4999H5C4.44772 18.4999 4 18.0522 4 17.4999V13.4999C4 11.6109 5.30935 10.0278 7.06996 9.60857Z" fill="#727B98"/>
<circle cx="10" cy="4.5" r="3" fill="#727B98"/>
<path d="M10.9173 11.6654L10.1118 13.2764C10.0657 13.3685 9.93426 13.3685 9.8882 13.2764L9.08272 11.6654C9.02934 11.5587 9.01591 11.4364 9.04486 11.3206L9.45266 9.68937C9.48048 9.57807 9.58048 9.5 9.69519 9.5L10.3048 9.5C10.4195 9.5 10.5195 9.57807 10.5473 9.68937L10.9551 11.3206C10.9841 11.4364 10.9707 11.5587 10.9173 11.6654Z" fill="#727B98"/>
</svg>
