<svg width="16" height="16" viewBox="0 0 16 16" fill="none" xmlns="http://www.w3.org/2000/svg">
<path d="M8.17561 4.06602C8.06242 4.02357 7.93768 4.02357 7.82449 4.06602L2.58183 6.03201C2.06062 6.22747 2.20074 7.00018 2.75739 7.00018H13.2427C13.7994 7.00018 13.9395 6.22747 13.4183 6.03202L8.17561 4.06602Z" fill="#727B98"/>
<path d="M2.5 8C2.22386 8 2 8.22386 2 8.5V11.5C2 11.7761 2.22386 12 2.5 12H5.5C5.77614 12 6 11.7761 6 11.5V8.5C6 8.22386 5.77614 8 5.5 8H2.5Z" fill="#727B98"/>
<path d="M7 8.5C7 8.22386 7.22386 8 7.5 8H8.5C8.77614 8 9 8.22386 9 8.5V11.5C9 11.7761 8.77614 12 8.5 12H7.5C7.22386 12 7 11.7761 7 11.5V8.5Z" fill="#727B98"/>
<path d="M10.5 8C10.2239 8 10 8.22386 10 8.5V11.5C10 11.7761 10.2239 12 10.5 12H13.5C13.7761 12 14 11.7761 14 11.5V8.5C14 8.22386 13.7761 8 13.5 8H10.5Z" fill="#727B98"/>
</svg>
