<svg width="20" height="20" viewBox="0 0 20 20" fill="none" xmlns="http://www.w3.org/2000/svg">
    <mask id="mask0_1179_21260" style="mask-type:alpha" x="0" y="0" width="20" height="20">
        <rect width="20" height="20" fill="#D9D9D9" />
    </mask>
    <g mask="url(#mask0_1179_21260)">
        <path
            d="M9.25 18V14.562L6.583 17.229L5.521 16.167L9.25 12.458V10.75H7.542L3.812 14.479L2.75 13.417L5.438 10.75H2V9.25H5.438L2.771 6.583L3.833 5.521L7.542 9.25H9.25V7.542L5.521 3.833L6.583 2.771L9.25 5.438V2H10.75V5.438L13.417 2.75L14.479 3.812L10.75 7.542V9.25H12.458L16.167 5.521L17.229 6.583L14.562 9.25H18V10.75H14.562L17.25 13.417L16.188 14.479L12.458 10.75H10.75V12.458L14.479 16.188L13.417 17.25L10.75 14.562V18H9.25Z"
            fill="#1C1B1F" />
    </g>
</svg>
